<mxfile host="app.diagrams.net" modified="2023-09-28T06:31:58.034Z" agent="Mozilla/5.0 (Windows NT 10.0; Win64; x64; rv:109.0) Gecko/20100101 Firefox/117.0" etag="0rdaWY31Rdd_7Y4HeJwu" version="21.8.2" type="device">
  <diagram id="C5RBs43oDa-KdzZeNtuy" name="Page-1">
    <mxGraphModel dx="1930" dy="878" grid="1" gridSize="10" guides="1" tooltips="1" connect="1" arrows="1" fold="1" page="1" pageScale="1" pageWidth="827" pageHeight="1169" math="0" shadow="0">
      <root>
        <mxCell id="WIyWlLk6GJQsqaUBKTNV-0" />
        <mxCell id="WIyWlLk6GJQsqaUBKTNV-1" parent="WIyWlLk6GJQsqaUBKTNV-0" />
        <mxCell id="GRbMy3bL4gG7srACkzMk-0" value="ENTRY" style="text;html=1;align=center;verticalAlign=middle;resizable=0;points=[];autosize=1;strokeColor=none;fillColor=none;" vertex="1" parent="WIyWlLk6GJQsqaUBKTNV-1">
          <mxGeometry x="177" y="108" width="70" height="30" as="geometry" />
        </mxCell>
        <mxCell id="GRbMy3bL4gG7srACkzMk-86" value="" style="edgeStyle=orthogonalEdgeStyle;rounded=0;orthogonalLoop=1;jettySize=auto;html=1;" edge="1" parent="WIyWlLk6GJQsqaUBKTNV-1" source="GRbMy3bL4gG7srACkzMk-1" target="GRbMy3bL4gG7srACkzMk-82">
          <mxGeometry relative="1" as="geometry" />
        </mxCell>
        <mxCell id="GRbMy3bL4gG7srACkzMk-1" value="&lt;font style=&quot;font-size: 18px;&quot;&gt;parameters(direction)&lt;/font&gt;" style="ellipse;whiteSpace=wrap;html=1;" vertex="1" parent="WIyWlLk6GJQsqaUBKTNV-1">
          <mxGeometry x="90" y="170" width="180" height="120" as="geometry" />
        </mxCell>
        <mxCell id="GRbMy3bL4gG7srACkzMk-2" value="" style="endArrow=classic;html=1;rounded=0;entryX=0.5;entryY=0;entryDx=0;entryDy=0;" edge="1" parent="WIyWlLk6GJQsqaUBKTNV-1" target="GRbMy3bL4gG7srACkzMk-1">
          <mxGeometry width="50" height="50" relative="1" as="geometry">
            <mxPoint x="180" y="90" as="sourcePoint" />
            <mxPoint x="440" y="420" as="targetPoint" />
          </mxGeometry>
        </mxCell>
        <mxCell id="GRbMy3bL4gG7srACkzMk-87" value="" style="edgeStyle=orthogonalEdgeStyle;rounded=0;orthogonalLoop=1;jettySize=auto;html=1;" edge="1" parent="WIyWlLk6GJQsqaUBKTNV-1" source="GRbMy3bL4gG7srACkzMk-82" target="GRbMy3bL4gG7srACkzMk-83">
          <mxGeometry relative="1" as="geometry" />
        </mxCell>
        <mxCell id="GRbMy3bL4gG7srACkzMk-98" value="" style="edgeStyle=orthogonalEdgeStyle;rounded=0;orthogonalLoop=1;jettySize=auto;html=1;" edge="1" parent="WIyWlLk6GJQsqaUBKTNV-1" source="GRbMy3bL4gG7srACkzMk-82" target="GRbMy3bL4gG7srACkzMk-90">
          <mxGeometry relative="1" as="geometry" />
        </mxCell>
        <mxCell id="GRbMy3bL4gG7srACkzMk-82" value="&lt;div&gt;&lt;font size=&quot;3&quot;&gt;capitalized direction ==&lt;/font&gt;&lt;/div&gt;&lt;div&gt;&lt;font size=&quot;3&quot;&gt;W or UP&lt;br&gt;&lt;/font&gt;&lt;/div&gt;" style="rhombus;whiteSpace=wrap;html=1;" vertex="1" parent="WIyWlLk6GJQsqaUBKTNV-1">
          <mxGeometry x="90" y="330" width="180" height="170" as="geometry" />
        </mxCell>
        <mxCell id="GRbMy3bL4gG7srACkzMk-88" value="" style="edgeStyle=orthogonalEdgeStyle;rounded=0;orthogonalLoop=1;jettySize=auto;html=1;" edge="1" parent="WIyWlLk6GJQsqaUBKTNV-1" source="GRbMy3bL4gG7srACkzMk-83" target="GRbMy3bL4gG7srACkzMk-84">
          <mxGeometry relative="1" as="geometry" />
        </mxCell>
        <mxCell id="GRbMy3bL4gG7srACkzMk-97" value="" style="edgeStyle=orthogonalEdgeStyle;rounded=0;orthogonalLoop=1;jettySize=auto;html=1;" edge="1" parent="WIyWlLk6GJQsqaUBKTNV-1" source="GRbMy3bL4gG7srACkzMk-83" target="GRbMy3bL4gG7srACkzMk-92">
          <mxGeometry relative="1" as="geometry" />
        </mxCell>
        <mxCell id="GRbMy3bL4gG7srACkzMk-83" value="&lt;div&gt;&lt;font size=&quot;3&quot;&gt;capitalized direction ==&lt;/font&gt;&lt;/div&gt;&lt;div&gt;&lt;font size=&quot;3&quot;&gt;S or DOWN&lt;br&gt;&lt;/font&gt;&lt;/div&gt;" style="rhombus;whiteSpace=wrap;html=1;" vertex="1" parent="WIyWlLk6GJQsqaUBKTNV-1">
          <mxGeometry x="90" y="540" width="180" height="170" as="geometry" />
        </mxCell>
        <mxCell id="GRbMy3bL4gG7srACkzMk-89" value="" style="edgeStyle=orthogonalEdgeStyle;rounded=0;orthogonalLoop=1;jettySize=auto;html=1;" edge="1" parent="WIyWlLk6GJQsqaUBKTNV-1" source="GRbMy3bL4gG7srACkzMk-84" target="GRbMy3bL4gG7srACkzMk-85">
          <mxGeometry relative="1" as="geometry" />
        </mxCell>
        <mxCell id="GRbMy3bL4gG7srACkzMk-96" value="" style="edgeStyle=orthogonalEdgeStyle;rounded=0;orthogonalLoop=1;jettySize=auto;html=1;" edge="1" parent="WIyWlLk6GJQsqaUBKTNV-1" source="GRbMy3bL4gG7srACkzMk-84" target="GRbMy3bL4gG7srACkzMk-93">
          <mxGeometry relative="1" as="geometry" />
        </mxCell>
        <mxCell id="GRbMy3bL4gG7srACkzMk-84" value="&lt;div&gt;&lt;font size=&quot;3&quot;&gt;capitalized direction ==&lt;/font&gt;&lt;/div&gt;&lt;div&gt;&lt;font size=&quot;3&quot;&gt;A or LEFT&lt;br&gt;&lt;/font&gt;&lt;/div&gt;" style="rhombus;whiteSpace=wrap;html=1;" vertex="1" parent="WIyWlLk6GJQsqaUBKTNV-1">
          <mxGeometry x="90" y="760" width="180" height="170" as="geometry" />
        </mxCell>
        <mxCell id="GRbMy3bL4gG7srACkzMk-95" value="" style="edgeStyle=orthogonalEdgeStyle;rounded=0;orthogonalLoop=1;jettySize=auto;html=1;" edge="1" parent="WIyWlLk6GJQsqaUBKTNV-1" source="GRbMy3bL4gG7srACkzMk-85" target="GRbMy3bL4gG7srACkzMk-94">
          <mxGeometry relative="1" as="geometry" />
        </mxCell>
        <mxCell id="GRbMy3bL4gG7srACkzMk-109" value="" style="edgeStyle=orthogonalEdgeStyle;rounded=0;orthogonalLoop=1;jettySize=auto;html=1;" edge="1" parent="WIyWlLk6GJQsqaUBKTNV-1" source="GRbMy3bL4gG7srACkzMk-85" target="GRbMy3bL4gG7srACkzMk-108">
          <mxGeometry relative="1" as="geometry" />
        </mxCell>
        <mxCell id="GRbMy3bL4gG7srACkzMk-85" value="&lt;div&gt;&lt;font size=&quot;3&quot;&gt;capitalized direction ==&lt;/font&gt;&lt;/div&gt;&lt;div&gt;&lt;font size=&quot;3&quot;&gt;D or RIGHT&lt;br&gt;&lt;/font&gt;&lt;/div&gt;" style="rhombus;whiteSpace=wrap;html=1;" vertex="1" parent="WIyWlLk6GJQsqaUBKTNV-1">
          <mxGeometry x="90" y="970" width="180" height="170" as="geometry" />
        </mxCell>
        <mxCell id="GRbMy3bL4gG7srACkzMk-100" value="" style="edgeStyle=orthogonalEdgeStyle;rounded=0;orthogonalLoop=1;jettySize=auto;html=1;" edge="1" parent="WIyWlLk6GJQsqaUBKTNV-1" source="GRbMy3bL4gG7srACkzMk-90" target="GRbMy3bL4gG7srACkzMk-99">
          <mxGeometry relative="1" as="geometry" />
        </mxCell>
        <mxCell id="GRbMy3bL4gG7srACkzMk-90" value="&lt;div&gt;&lt;font style=&quot;font-size: 18px;&quot;&gt;Player position not at &lt;br&gt;&lt;/font&gt;&lt;/div&gt;&lt;div&gt;&lt;font size=&quot;3&quot;&gt;maximum height&lt;br&gt;&lt;/font&gt;&lt;/div&gt;" style="rhombus;whiteSpace=wrap;html=1;" vertex="1" parent="WIyWlLk6GJQsqaUBKTNV-1">
          <mxGeometry x="330" y="345" width="150" height="140" as="geometry" />
        </mxCell>
        <mxCell id="GRbMy3bL4gG7srACkzMk-102" value="" style="edgeStyle=orthogonalEdgeStyle;rounded=0;orthogonalLoop=1;jettySize=auto;html=1;" edge="1" parent="WIyWlLk6GJQsqaUBKTNV-1" source="GRbMy3bL4gG7srACkzMk-92" target="GRbMy3bL4gG7srACkzMk-101">
          <mxGeometry relative="1" as="geometry" />
        </mxCell>
        <mxCell id="GRbMy3bL4gG7srACkzMk-92" value="&lt;div&gt;&lt;font style=&quot;font-size: 18px;&quot;&gt;Player position not at&amp;nbsp;&lt;/font&gt;&lt;/div&gt;&lt;div&gt;&lt;font size=&quot;3&quot;&gt;minimum height &lt;/font&gt;&lt;/div&gt;" style="rhombus;whiteSpace=wrap;html=1;" vertex="1" parent="WIyWlLk6GJQsqaUBKTNV-1">
          <mxGeometry x="330" y="555" width="150" height="140" as="geometry" />
        </mxCell>
        <mxCell id="GRbMy3bL4gG7srACkzMk-107" value="" style="edgeStyle=orthogonalEdgeStyle;rounded=0;orthogonalLoop=1;jettySize=auto;html=1;" edge="1" parent="WIyWlLk6GJQsqaUBKTNV-1" source="GRbMy3bL4gG7srACkzMk-93" target="GRbMy3bL4gG7srACkzMk-105">
          <mxGeometry relative="1" as="geometry" />
        </mxCell>
        <mxCell id="GRbMy3bL4gG7srACkzMk-93" value="&lt;div&gt;&lt;font style=&quot;font-size: 18px;&quot;&gt;Player position not at leftmost&amp;nbsp;&lt;/font&gt;&lt;/div&gt;&lt;div&gt;&lt;font size=&quot;3&quot;&gt;point&lt;br&gt;&lt;/font&gt;&lt;/div&gt;" style="rhombus;whiteSpace=wrap;html=1;" vertex="1" parent="WIyWlLk6GJQsqaUBKTNV-1">
          <mxGeometry x="330" y="775" width="150" height="140" as="geometry" />
        </mxCell>
        <mxCell id="GRbMy3bL4gG7srACkzMk-106" value="" style="edgeStyle=orthogonalEdgeStyle;rounded=0;orthogonalLoop=1;jettySize=auto;html=1;" edge="1" parent="WIyWlLk6GJQsqaUBKTNV-1" source="GRbMy3bL4gG7srACkzMk-94" target="GRbMy3bL4gG7srACkzMk-103">
          <mxGeometry relative="1" as="geometry" />
        </mxCell>
        <mxCell id="GRbMy3bL4gG7srACkzMk-116" style="edgeStyle=orthogonalEdgeStyle;rounded=0;orthogonalLoop=1;jettySize=auto;html=1;" edge="1" parent="WIyWlLk6GJQsqaUBKTNV-1" source="GRbMy3bL4gG7srACkzMk-94">
          <mxGeometry relative="1" as="geometry">
            <mxPoint x="960" y="1190" as="targetPoint" />
            <Array as="points">
              <mxPoint x="405" y="1160" />
              <mxPoint x="406" y="1160" />
            </Array>
          </mxGeometry>
        </mxCell>
        <mxCell id="GRbMy3bL4gG7srACkzMk-94" value="&lt;div&gt;&lt;font style=&quot;font-size: 18px;&quot;&gt;Player position not at rightmost&amp;nbsp;&lt;/font&gt;&lt;/div&gt;&lt;div&gt;&lt;font size=&quot;3&quot;&gt;point&lt;br&gt;&lt;/font&gt;&lt;/div&gt;" style="rhombus;whiteSpace=wrap;html=1;" vertex="1" parent="WIyWlLk6GJQsqaUBKTNV-1">
          <mxGeometry x="330" y="985" width="150" height="140" as="geometry" />
        </mxCell>
        <mxCell id="GRbMy3bL4gG7srACkzMk-110" style="edgeStyle=orthogonalEdgeStyle;rounded=0;orthogonalLoop=1;jettySize=auto;html=1;entryX=1;entryY=0.5;entryDx=0;entryDy=0;" edge="1" parent="WIyWlLk6GJQsqaUBKTNV-1">
          <mxGeometry relative="1" as="geometry">
            <mxPoint x="255" y="1290" as="targetPoint" />
            <mxPoint x="760" y="410" as="sourcePoint" />
            <Array as="points">
              <mxPoint x="961" y="410" />
              <mxPoint x="961" y="1290" />
            </Array>
          </mxGeometry>
        </mxCell>
        <mxCell id="GRbMy3bL4gG7srACkzMk-119" style="edgeStyle=orthogonalEdgeStyle;rounded=0;orthogonalLoop=1;jettySize=auto;html=1;" edge="1" parent="WIyWlLk6GJQsqaUBKTNV-1" source="GRbMy3bL4gG7srACkzMk-99">
          <mxGeometry relative="1" as="geometry">
            <mxPoint x="960" y="410" as="targetPoint" />
            <Array as="points">
              <mxPoint x="860" y="410" />
              <mxPoint x="860" y="411" />
            </Array>
          </mxGeometry>
        </mxCell>
        <mxCell id="GRbMy3bL4gG7srACkzMk-99" value="&lt;font style=&quot;font-size: 24px;&quot;&gt;Decrement playerY by one&lt;/font&gt;" style="rounded=0;whiteSpace=wrap;html=1;" vertex="1" parent="WIyWlLk6GJQsqaUBKTNV-1">
          <mxGeometry x="540" y="377.5" width="220" height="75" as="geometry" />
        </mxCell>
        <mxCell id="GRbMy3bL4gG7srACkzMk-111" style="edgeStyle=orthogonalEdgeStyle;rounded=0;orthogonalLoop=1;jettySize=auto;html=1;" edge="1" parent="WIyWlLk6GJQsqaUBKTNV-1" source="GRbMy3bL4gG7srACkzMk-101">
          <mxGeometry relative="1" as="geometry">
            <mxPoint x="960" y="625" as="targetPoint" />
          </mxGeometry>
        </mxCell>
        <mxCell id="GRbMy3bL4gG7srACkzMk-101" value="&lt;font style=&quot;font-size: 24px;&quot;&gt;Increment playerY by one&lt;/font&gt;" style="rounded=0;whiteSpace=wrap;html=1;" vertex="1" parent="WIyWlLk6GJQsqaUBKTNV-1">
          <mxGeometry x="540" y="587.5" width="220" height="75" as="geometry" />
        </mxCell>
        <mxCell id="GRbMy3bL4gG7srACkzMk-120" style="edgeStyle=orthogonalEdgeStyle;rounded=0;orthogonalLoop=1;jettySize=auto;html=1;" edge="1" parent="WIyWlLk6GJQsqaUBKTNV-1" source="GRbMy3bL4gG7srACkzMk-103">
          <mxGeometry relative="1" as="geometry">
            <mxPoint x="960" y="1055" as="targetPoint" />
          </mxGeometry>
        </mxCell>
        <mxCell id="GRbMy3bL4gG7srACkzMk-103" value="&lt;font style=&quot;font-size: 24px;&quot;&gt;Increment playerX by one&lt;/font&gt;" style="rounded=0;whiteSpace=wrap;html=1;" vertex="1" parent="WIyWlLk6GJQsqaUBKTNV-1">
          <mxGeometry x="540" y="1017.5" width="220" height="75" as="geometry" />
        </mxCell>
        <mxCell id="GRbMy3bL4gG7srACkzMk-113" style="edgeStyle=orthogonalEdgeStyle;rounded=0;orthogonalLoop=1;jettySize=auto;html=1;" edge="1" parent="WIyWlLk6GJQsqaUBKTNV-1" source="GRbMy3bL4gG7srACkzMk-105">
          <mxGeometry relative="1" as="geometry">
            <mxPoint x="960" y="845" as="targetPoint" />
          </mxGeometry>
        </mxCell>
        <mxCell id="GRbMy3bL4gG7srACkzMk-105" value="&lt;font style=&quot;font-size: 24px;&quot;&gt;Decrement playerX by one&lt;/font&gt;" style="rounded=0;whiteSpace=wrap;html=1;" vertex="1" parent="WIyWlLk6GJQsqaUBKTNV-1">
          <mxGeometry x="540" y="807.5" width="220" height="75" as="geometry" />
        </mxCell>
        <mxCell id="GRbMy3bL4gG7srACkzMk-108" value="&lt;font style=&quot;font-size: 24px;&quot;&gt;END&lt;/font&gt;" style="ellipse;whiteSpace=wrap;html=1;" vertex="1" parent="WIyWlLk6GJQsqaUBKTNV-1">
          <mxGeometry x="105" y="1250" width="150" height="90" as="geometry" />
        </mxCell>
        <mxCell id="GRbMy3bL4gG7srACkzMk-118" style="edgeStyle=orthogonalEdgeStyle;rounded=0;orthogonalLoop=1;jettySize=auto;html=1;exitX=0.5;exitY=1;exitDx=0;exitDy=0;" edge="1" parent="WIyWlLk6GJQsqaUBKTNV-1" source="GRbMy3bL4gG7srACkzMk-93">
          <mxGeometry relative="1" as="geometry">
            <mxPoint x="960" y="950" as="targetPoint" />
            <mxPoint x="400" y="915" as="sourcePoint" />
            <Array as="points">
              <mxPoint x="405" y="950" />
              <mxPoint x="955" y="950" />
            </Array>
          </mxGeometry>
        </mxCell>
        <mxCell id="GRbMy3bL4gG7srACkzMk-121" style="edgeStyle=orthogonalEdgeStyle;rounded=0;orthogonalLoop=1;jettySize=auto;html=1;exitX=0.5;exitY=1;exitDx=0;exitDy=0;" edge="1" parent="WIyWlLk6GJQsqaUBKTNV-1" source="GRbMy3bL4gG7srACkzMk-92">
          <mxGeometry relative="1" as="geometry">
            <mxPoint x="960" y="730" as="targetPoint" />
            <mxPoint x="400" y="695" as="sourcePoint" />
            <Array as="points">
              <mxPoint x="400" y="695" />
              <mxPoint x="400" y="730" />
            </Array>
          </mxGeometry>
        </mxCell>
        <mxCell id="GRbMy3bL4gG7srACkzMk-122" style="edgeStyle=orthogonalEdgeStyle;rounded=0;orthogonalLoop=1;jettySize=auto;html=1;exitX=0.5;exitY=1;exitDx=0;exitDy=0;" edge="1" parent="WIyWlLk6GJQsqaUBKTNV-1">
          <mxGeometry relative="1" as="geometry">
            <mxPoint x="960" y="520" as="targetPoint" />
            <mxPoint x="405" y="485" as="sourcePoint" />
            <Array as="points">
              <mxPoint x="400" y="485" />
              <mxPoint x="400" y="520" />
            </Array>
          </mxGeometry>
        </mxCell>
        <mxCell id="GRbMy3bL4gG7srACkzMk-124" value="&lt;font style=&quot;font-size: 18px;&quot;&gt;FALSE&lt;/font&gt;" style="text;html=1;align=center;verticalAlign=middle;resizable=0;points=[];autosize=1;strokeColor=none;fillColor=none;" vertex="1" parent="WIyWlLk6GJQsqaUBKTNV-1">
          <mxGeometry x="200" y="1169" width="80" height="40" as="geometry" />
        </mxCell>
        <mxCell id="GRbMy3bL4gG7srACkzMk-125" value="&lt;font style=&quot;font-size: 18px;&quot;&gt;TRUE&lt;/font&gt;" style="text;html=1;align=center;verticalAlign=middle;resizable=0;points=[];autosize=1;strokeColor=none;fillColor=none;" vertex="1" parent="WIyWlLk6GJQsqaUBKTNV-1">
          <mxGeometry x="470" y="580" width="70" height="40" as="geometry" />
        </mxCell>
        <mxCell id="GRbMy3bL4gG7srACkzMk-126" value="&lt;font style=&quot;font-size: 18px;&quot;&gt;TRUE&lt;/font&gt;" style="text;html=1;align=center;verticalAlign=middle;resizable=0;points=[];autosize=1;strokeColor=none;fillColor=none;" vertex="1" parent="WIyWlLk6GJQsqaUBKTNV-1">
          <mxGeometry x="260" y="580" width="70" height="40" as="geometry" />
        </mxCell>
        <mxCell id="GRbMy3bL4gG7srACkzMk-127" value="&lt;font style=&quot;font-size: 18px;&quot;&gt;TRUE&lt;/font&gt;" style="text;html=1;align=center;verticalAlign=middle;resizable=0;points=[];autosize=1;strokeColor=none;fillColor=none;" vertex="1" parent="WIyWlLk6GJQsqaUBKTNV-1">
          <mxGeometry x="470" y="370" width="70" height="40" as="geometry" />
        </mxCell>
        <mxCell id="GRbMy3bL4gG7srACkzMk-128" value="&lt;font style=&quot;font-size: 18px;&quot;&gt;TRUE&lt;/font&gt;" style="text;html=1;align=center;verticalAlign=middle;resizable=0;points=[];autosize=1;strokeColor=none;fillColor=none;" vertex="1" parent="WIyWlLk6GJQsqaUBKTNV-1">
          <mxGeometry x="270" y="370" width="70" height="40" as="geometry" />
        </mxCell>
        <mxCell id="GRbMy3bL4gG7srACkzMk-129" value="&lt;font style=&quot;font-size: 18px;&quot;&gt;TRUE&lt;/font&gt;" style="text;html=1;align=center;verticalAlign=middle;resizable=0;points=[];autosize=1;strokeColor=none;fillColor=none;" vertex="1" parent="WIyWlLk6GJQsqaUBKTNV-1">
          <mxGeometry x="470" y="1010" width="70" height="40" as="geometry" />
        </mxCell>
        <mxCell id="GRbMy3bL4gG7srACkzMk-130" value="&lt;font style=&quot;font-size: 18px;&quot;&gt;TRUE&lt;/font&gt;" style="text;html=1;align=center;verticalAlign=middle;resizable=0;points=[];autosize=1;strokeColor=none;fillColor=none;" vertex="1" parent="WIyWlLk6GJQsqaUBKTNV-1">
          <mxGeometry x="270" y="1010" width="70" height="40" as="geometry" />
        </mxCell>
        <mxCell id="GRbMy3bL4gG7srACkzMk-131" value="&lt;font style=&quot;font-size: 18px;&quot;&gt;TRUE&lt;/font&gt;" style="text;html=1;align=center;verticalAlign=middle;resizable=0;points=[];autosize=1;strokeColor=none;fillColor=none;" vertex="1" parent="WIyWlLk6GJQsqaUBKTNV-1">
          <mxGeometry x="470" y="790" width="70" height="40" as="geometry" />
        </mxCell>
        <mxCell id="GRbMy3bL4gG7srACkzMk-132" value="&lt;font style=&quot;font-size: 18px;&quot;&gt;TRUE&lt;/font&gt;" style="text;html=1;align=center;verticalAlign=middle;resizable=0;points=[];autosize=1;strokeColor=none;fillColor=none;" vertex="1" parent="WIyWlLk6GJQsqaUBKTNV-1">
          <mxGeometry x="255" y="790" width="70" height="40" as="geometry" />
        </mxCell>
        <mxCell id="GRbMy3bL4gG7srACkzMk-133" value="&lt;font style=&quot;font-size: 18px;&quot;&gt;FALSE&lt;/font&gt;" style="text;html=1;align=center;verticalAlign=middle;resizable=0;points=[];autosize=1;strokeColor=none;fillColor=none;" vertex="1" parent="WIyWlLk6GJQsqaUBKTNV-1">
          <mxGeometry x="414" y="1150" width="80" height="40" as="geometry" />
        </mxCell>
        <mxCell id="GRbMy3bL4gG7srACkzMk-134" value="&lt;font style=&quot;font-size: 18px;&quot;&gt;FALSE&lt;/font&gt;" style="text;html=1;align=center;verticalAlign=middle;resizable=0;points=[];autosize=1;strokeColor=none;fillColor=none;" vertex="1" parent="WIyWlLk6GJQsqaUBKTNV-1">
          <mxGeometry x="190" y="920" width="80" height="40" as="geometry" />
        </mxCell>
        <mxCell id="GRbMy3bL4gG7srACkzMk-135" value="&lt;font style=&quot;font-size: 18px;&quot;&gt;FALSE&lt;/font&gt;" style="text;html=1;align=center;verticalAlign=middle;resizable=0;points=[];autosize=1;strokeColor=none;fillColor=none;" vertex="1" parent="WIyWlLk6GJQsqaUBKTNV-1">
          <mxGeometry x="414" y="910" width="80" height="40" as="geometry" />
        </mxCell>
        <mxCell id="GRbMy3bL4gG7srACkzMk-136" value="&lt;font style=&quot;font-size: 18px;&quot;&gt;FALSE&lt;/font&gt;" style="text;html=1;align=center;verticalAlign=middle;resizable=0;points=[];autosize=1;strokeColor=none;fillColor=none;" vertex="1" parent="WIyWlLk6GJQsqaUBKTNV-1">
          <mxGeometry x="200" y="710" width="80" height="40" as="geometry" />
        </mxCell>
        <mxCell id="GRbMy3bL4gG7srACkzMk-137" value="&lt;font style=&quot;font-size: 18px;&quot;&gt;FALSE&lt;/font&gt;" style="text;html=1;align=center;verticalAlign=middle;resizable=0;points=[];autosize=1;strokeColor=none;fillColor=none;" vertex="1" parent="WIyWlLk6GJQsqaUBKTNV-1">
          <mxGeometry x="414" y="690" width="80" height="40" as="geometry" />
        </mxCell>
        <mxCell id="GRbMy3bL4gG7srACkzMk-138" value="&lt;font style=&quot;font-size: 18px;&quot;&gt;FALSE&lt;/font&gt;" style="text;html=1;align=center;verticalAlign=middle;resizable=0;points=[];autosize=1;strokeColor=none;fillColor=none;" vertex="1" parent="WIyWlLk6GJQsqaUBKTNV-1">
          <mxGeometry x="414" y="480" width="80" height="40" as="geometry" />
        </mxCell>
        <mxCell id="GRbMy3bL4gG7srACkzMk-139" value="&lt;font style=&quot;font-size: 18px;&quot;&gt;FALSE&lt;/font&gt;" style="text;html=1;align=center;verticalAlign=middle;resizable=0;points=[];autosize=1;strokeColor=none;fillColor=none;" vertex="1" parent="WIyWlLk6GJQsqaUBKTNV-1">
          <mxGeometry x="190" y="490" width="80" height="40" as="geometry" />
        </mxCell>
      </root>
    </mxGraphModel>
  </diagram>
</mxfile>
